<?xml version="1.0" encoding="UTF-8" standalone="no"?>
<!DOCTYPE svg PUBLIC "-//W3C//DTD SVG 1.1//EN" "http://www.w3.org/Graphics/SVG/1.1/DTD/svg11.dtd">
<svg version="1.1" xmlns="http://www.w3.org/2000/svg" xmlns:xlink="http://www.w3.org/1999/xlink" preserveAspectRatio="xMidYMid meet" viewBox="0 0 640 640" width="640" height="640"><defs><path d="M320 623.88C183.43 438.82 115.16 307.15 115.16 228.83C115.16 111.35 206.87 16.12 320 16.12C433.13 16.12 524.84 111.35 524.84 228.83C524.84 307.15 456.57 438.82 320 623.88ZM320 350.39C384.65 350.39 437.05 295.97 437.05 228.83C437.05 161.7 384.65 107.28 320 107.28C255.35 107.28 202.95 161.7 202.95 228.83C202.95 295.97 255.35 350.39 320 350.39Z" id="b2BLuqPZv5"></path><path d="M320 623.88C183.43 438.82 115.16 307.15 115.16 228.83C115.16 111.35 206.87 16.12 320 16.12C433.13 16.12 524.84 111.35 524.84 228.83C524.84 307.15 456.57 438.82 320 623.88ZM320 350.39C384.65 350.39 437.05 295.97 437.05 228.83C437.05 161.7 384.65 107.28 320 107.28C255.35 107.28 202.95 161.7 202.95 228.83C202.95 295.97 255.35 350.39 320 350.39Z" id="bkuqxV7V2"></path><path d="M320 623.88C183.43 438.82 115.16 307.15 115.16 228.83C115.16 111.35 206.87 16.12 320 16.12C433.13 16.12 524.84 111.35 524.84 228.83C524.84 307.15 456.57 438.82 320 623.88ZM320 350.39C384.65 350.39 437.05 295.97 437.05 228.83C437.05 161.7 384.65 107.28 320 107.28C255.35 107.28 202.95 161.7 202.95 228.83C202.95 295.97 255.35 350.39 320 350.39Z" id="a1Tyik9v1q"></path><path d="M320 623.88C183.43 438.82 115.16 307.15 115.16 228.83C115.16 111.35 206.87 16.12 320 16.12C433.13 16.12 524.84 111.35 524.84 228.83C524.84 307.15 456.57 438.82 320 623.88ZM320 350.39C384.65 350.39 437.05 295.97 437.05 228.83C437.05 161.7 384.65 107.28 320 107.28C255.35 107.28 202.95 161.7 202.95 228.83C202.95 295.97 255.35 350.39 320 350.39Z" id="b4IHqRL14E"></path><path d="M320 623.88C183.43 438.82 115.16 307.15 115.16 228.83C115.16 111.35 206.87 16.12 320 16.12C433.13 16.12 524.84 111.35 524.84 228.83C524.84 307.15 456.57 438.82 320 623.88ZM320 350.39C384.65 350.39 437.05 295.97 437.05 228.83C437.05 161.7 384.65 107.28 320 107.28C255.35 107.28 202.95 161.7 202.95 228.83C202.95 295.97 255.35 350.39 320 350.39Z" id="bLhRfKIRY"></path><path d="M320 623.88C183.43 438.82 115.16 307.15 115.16 228.83C115.16 111.35 206.87 16.12 320 16.12C433.13 16.12 524.84 111.35 524.84 228.83C524.84 307.15 456.57 438.82 320 623.88ZM320 350.39C384.65 350.39 437.05 295.97 437.05 228.83C437.05 161.7 384.65 107.28 320 107.28C255.35 107.28 202.95 161.7 202.95 228.83C202.95 295.97 255.35 350.39 320 350.39Z" id="d4bCjDvBf"></path></defs><g><g><g><use xlink:href="#b2BLuqPZv5" opacity="1" fill="#4c87a4" fill-opacity="1"></use><g><use xlink:href="#b2BLuqPZv5" opacity="1" fill-opacity="0" stroke="#000000" stroke-width="1" stroke-opacity="0"></use></g></g><g><use xlink:href="#bkuqxV7V2" opacity="1" fill="#000000" fill-opacity="0"></use><g><use xlink:href="#bkuqxV7V2" opacity="1" fill-opacity="0" stroke="#000000" stroke-width="2" stroke-opacity="1"></use></g></g><g><use xlink:href="#a1Tyik9v1q" opacity="1" fill="#000000" fill-opacity="0"></use><g><use xlink:href="#a1Tyik9v1q" opacity="1" fill-opacity="0" stroke="#000000" stroke-width="1" stroke-opacity="0"></use></g></g><g><use xlink:href="#b4IHqRL14E" opacity="1" fill="#000000" fill-opacity="0"></use><g><use xlink:href="#b4IHqRL14E" opacity="1" fill-opacity="0" stroke="#000000" stroke-width="1" stroke-opacity="0"></use></g></g><g><use xlink:href="#bLhRfKIRY" opacity="1" fill="#000000" fill-opacity="0"></use><g><use xlink:href="#bLhRfKIRY" opacity="1" fill-opacity="0" stroke="#000000" stroke-width="1" stroke-opacity="0"></use></g></g><g><use xlink:href="#d4bCjDvBf" opacity="1" fill="#000000" fill-opacity="0"></use><g><use xlink:href="#d4bCjDvBf" opacity="1" fill-opacity="0" stroke="#414141" stroke-width="10" stroke-opacity="1"></use></g></g></g></g></svg>