<?xml version="1.0" encoding="UTF-8" standalone="no"?>
<!DOCTYPE svg PUBLIC "-//W3C//DTD SVG 1.1//EN" "http://www.w3.org/Graphics/SVG/1.1/DTD/svg11.dtd">
<svg version="1.1" xmlns="http://www.w3.org/2000/svg" xmlns:xlink="http://www.w3.org/1999/xlink" preserveAspectRatio="xMidYMid meet" viewBox="0 0 640 640" width="640" height="640"><defs><path d="M115.16 228.83C115.16 111.35 206.87 16.12 320 16.12C433.13 16.12 524.84 111.35 524.84 228.83C524.84 307.15 456.57 438.82 320 623.88C183.43 438.82 115.16 307.15 115.16 228.83ZM437.05 228.83C437.05 161.7 384.65 107.28 320 107.28C255.35 107.28 202.95 161.7 202.95 228.83C202.95 295.97 255.35 350.39 320 350.39C384.65 350.39 437.05 295.97 437.05 228.83Z" id="b5qL8qey7c"></path><path d="M115.16 228.83C115.16 111.35 206.87 16.12 320 16.12C433.13 16.12 524.84 111.35 524.84 228.83C524.84 307.15 456.57 438.82 320 623.88C183.43 438.82 115.16 307.15 115.16 228.83ZM437.05 228.83C437.05 161.7 384.65 107.28 320 107.28C255.35 107.28 202.95 161.7 202.95 228.83C202.95 295.97 255.35 350.39 320 350.39C384.65 350.39 437.05 295.97 437.05 228.83Z" id="ffyyaSH55"></path><path d="M115.16 228.83C115.16 111.35 206.87 16.12 320 16.12C433.13 16.12 524.84 111.35 524.84 228.83C524.84 307.15 456.57 438.82 320 623.88C183.43 438.82 115.16 307.15 115.16 228.83ZM437.05 228.83C437.05 161.7 384.65 107.28 320 107.28C255.35 107.28 202.95 161.7 202.95 228.83C202.95 295.97 255.35 350.39 320 350.39C384.65 350.39 437.05 295.97 437.05 228.83Z" id="ecgUBK1Ff"></path><path d="M115.16 228.83C115.16 111.35 206.87 16.12 320 16.12C433.13 16.12 524.84 111.35 524.84 228.83C524.84 307.15 456.57 438.82 320 623.88C183.43 438.82 115.16 307.15 115.16 228.83ZM437.05 228.83C437.05 161.7 384.65 107.28 320 107.28C255.35 107.28 202.95 161.7 202.95 228.83C202.95 295.97 255.35 350.39 320 350.39C384.65 350.39 437.05 295.97 437.05 228.83Z" id="a2bLsmISbL"></path><path d="M115.16 228.83C115.16 111.35 206.87 16.12 320 16.12C433.13 16.12 524.84 111.35 524.84 228.83C524.84 307.15 456.57 438.82 320 623.88C183.43 438.82 115.16 307.15 115.16 228.83ZM437.05 228.83C437.05 161.7 384.65 107.28 320 107.28C255.35 107.28 202.95 161.7 202.95 228.83C202.95 295.97 255.35 350.39 320 350.39C384.65 350.39 437.05 295.97 437.05 228.83Z" id="bnVr4YIfQ"></path><path d="M115.16 228.83C115.16 111.35 206.87 16.12 320 16.12C433.13 16.12 524.84 111.35 524.84 228.83C524.84 307.15 456.57 438.82 320 623.88C183.43 438.82 115.16 307.15 115.16 228.83ZM437.05 228.83C437.05 161.7 384.65 107.28 320 107.28C255.35 107.28 202.95 161.7 202.95 228.83C202.95 295.97 255.35 350.39 320 350.39C384.65 350.39 437.05 295.97 437.05 228.83Z" id="a2PmbaAbJX"></path><path d="M115.16 228.83C115.16 111.35 206.87 16.12 320 16.12C433.13 16.12 524.84 111.35 524.84 228.83C524.84 307.15 456.57 438.82 320 623.88C183.43 438.82 115.16 307.15 115.16 228.83ZM437.05 228.83C437.05 161.7 384.65 107.28 320 107.28C255.35 107.28 202.95 161.7 202.95 228.83C202.95 295.97 255.35 350.39 320 350.39C384.65 350.39 437.05 295.97 437.05 228.83Z" id="c6rZZcBE3A"></path><path d="M115.16 228.83C115.16 111.35 206.87 16.12 320 16.12C433.13 16.12 524.84 111.35 524.84 228.83C524.84 307.15 456.57 438.82 320 623.88C183.43 438.82 115.16 307.15 115.16 228.83ZM437.05 228.83C437.05 161.7 384.65 107.28 320 107.28C255.35 107.28 202.95 161.7 202.95 228.83C202.95 295.97 255.35 350.39 320 350.39C384.65 350.39 437.05 295.97 437.05 228.83Z" id="e1lBHEYTtX"></path><path d="M115.16 228.83C115.16 111.35 206.87 16.12 320 16.12C433.13 16.12 524.84 111.35 524.84 228.83C524.84 307.15 456.57 438.82 320 623.88C183.43 438.82 115.16 307.15 115.16 228.83ZM437.05 228.83C437.05 161.7 384.65 107.28 320 107.28C255.35 107.28 202.95 161.7 202.95 228.83C202.95 295.97 255.35 350.39 320 350.39C384.65 350.39 437.05 295.97 437.05 228.83Z" id="b2snGh9kqg"></path><path d="M115.16 228.83C115.16 111.35 206.87 16.12 320 16.12C433.13 16.12 524.84 111.35 524.84 228.83C524.84 307.15 456.57 438.82 320 623.88C183.43 438.82 115.16 307.15 115.16 228.83ZM437.05 228.83C437.05 161.7 384.65 107.28 320 107.28C255.35 107.28 202.95 161.7 202.95 228.83C202.95 295.97 255.35 350.39 320 350.39C384.65 350.39 437.05 295.97 437.05 228.83Z" id="aP7aqSFkL"></path><path d="M115.16 228.83C115.16 111.35 206.87 16.12 320 16.12C433.13 16.12 524.84 111.35 524.84 228.83C524.84 307.15 456.57 438.82 320 623.88C183.43 438.82 115.16 307.15 115.16 228.83ZM437.05 228.83C437.05 161.7 384.65 107.28 320 107.28C255.35 107.28 202.95 161.7 202.95 228.83C202.95 295.97 255.35 350.39 320 350.39C384.65 350.39 437.05 295.97 437.05 228.83Z" id="b1oVOMSAej"></path><path d="M115.16 228.83C115.16 111.35 206.87 16.12 320 16.12C433.13 16.12 524.84 111.35 524.84 228.83C524.84 307.15 456.57 438.82 320 623.88C183.43 438.82 115.16 307.15 115.16 228.83ZM437.05 228.83C437.05 161.7 384.65 107.28 320 107.28C255.35 107.28 202.95 161.7 202.95 228.83C202.95 295.97 255.35 350.39 320 350.39C384.65 350.39 437.05 295.97 437.05 228.83Z" id="gf6OB6INf"></path></defs><g><g><g><use xlink:href="#b5qL8qey7c" opacity="1" fill="#c14953" fill-opacity="1"></use><g><use xlink:href="#b5qL8qey7c" opacity="1" fill-opacity="0" stroke="#000000" stroke-width="1" stroke-opacity="0"></use></g></g><g><use xlink:href="#ffyyaSH55" opacity="1" fill="#000000" fill-opacity="0"></use><g><use xlink:href="#ffyyaSH55" opacity="1" fill-opacity="0" stroke="#000000" stroke-width="1" stroke-opacity="0"></use></g></g><g><use xlink:href="#ecgUBK1Ff" opacity="1" fill="#000000" fill-opacity="0"></use><g><use xlink:href="#ecgUBK1Ff" opacity="1" fill-opacity="0" stroke="#000000" stroke-width="1" stroke-opacity="0"></use></g></g><g><use xlink:href="#a2bLsmISbL" opacity="1" fill="#000000" fill-opacity="0"></use><g><use xlink:href="#a2bLsmISbL" opacity="1" fill-opacity="0" stroke="#000000" stroke-width="2" stroke-opacity="1"></use></g></g><g><use xlink:href="#bnVr4YIfQ" opacity="1" fill="#000000" fill-opacity="0"></use><g><use xlink:href="#bnVr4YIfQ" opacity="1" fill-opacity="0" stroke="#000000" stroke-width="1" stroke-opacity="0"></use></g></g><g><use xlink:href="#a2PmbaAbJX" opacity="1" fill="#000000" fill-opacity="0"></use><g><use xlink:href="#a2PmbaAbJX" opacity="1" fill-opacity="0" stroke="#000000" stroke-width="1" stroke-opacity="0"></use></g></g><g><use xlink:href="#c6rZZcBE3A" opacity="1" fill="#000000" fill-opacity="0"></use><g><use xlink:href="#c6rZZcBE3A" opacity="1" fill-opacity="0" stroke="#000000" stroke-width="1" stroke-opacity="0"></use></g></g><g><use xlink:href="#e1lBHEYTtX" opacity="1" fill="#000000" fill-opacity="0"></use><g><use xlink:href="#e1lBHEYTtX" opacity="1" fill-opacity="0" stroke="#000000" stroke-width="1" stroke-opacity="0"></use></g></g><g><use xlink:href="#b2snGh9kqg" opacity="1" fill="#000000" fill-opacity="0"></use><g><use xlink:href="#b2snGh9kqg" opacity="1" fill-opacity="0" stroke="#000000" stroke-width="1" stroke-opacity="0"></use></g></g><g><use xlink:href="#aP7aqSFkL" opacity="1" fill="#000000" fill-opacity="0"></use><g><use xlink:href="#aP7aqSFkL" opacity="1" fill-opacity="0" stroke="#000000" stroke-width="1" stroke-opacity="0"></use></g></g><g><use xlink:href="#b1oVOMSAej" opacity="1" fill="#000000" fill-opacity="0"></use><g><use xlink:href="#b1oVOMSAej" opacity="1" fill-opacity="0" stroke="#000000" stroke-width="1" stroke-opacity="0"></use></g></g><g><use xlink:href="#gf6OB6INf" opacity="1" fill="#000000" fill-opacity="0"></use><g><use xlink:href="#gf6OB6INf" opacity="1" fill-opacity="0" stroke="#414141" stroke-width="10" stroke-opacity="1"></use></g></g></g></g></svg>