<?xml version="1.0" encoding="UTF-8" standalone="no"?>
<!DOCTYPE svg PUBLIC "-//W3C//DTD SVG 1.1//EN" "http://www.w3.org/Graphics/SVG/1.1/DTD/svg11.dtd">
<svg version="1.1" xmlns="http://www.w3.org/2000/svg" xmlns:xlink="http://www.w3.org/1999/xlink" preserveAspectRatio="xMidYMid meet" viewBox="0 0 640 640" width="640" height="640"><defs><path d="M329.33 149.24C295.14 149.24 267.32 177.06 267.32 211.25C267.32 245.45 295.14 273.27 329.33 273.27C363.53 273.27 391.34 245.45 391.34 211.25C391.34 177.06 363.53 149.24 329.33 149.24Z" id="aWcmpMJeI"></path><path d="M402.06 442.31C369.7 480.82 342.65 507.48 339.83 510.24C339.13 510.93 335.64 514.34 329.35 520.49C323.06 514.35 319.56 510.95 318.86 510.26C316.04 507.51 288.91 480.87 256.48 442.35C245.82 444.59 235.85 447.33 226.83 450.55C185.23 465.42 176.5 485.39 176.5 499.52C176.5 513.65 185.23 533.62 226.83 548.49C254.45 558.36 290.87 563.79 329.38 563.79C367.88 563.79 404.3 558.36 431.92 548.49C473.52 533.62 482.25 513.65 482.25 499.52C482.25 485.39 473.52 465.42 431.92 450.55C422.84 447.31 412.8 444.56 402.06 442.31Z" id="a7IZJZxlVf"></path><path d="M490.82 213.28C490.82 124.24 418.38 51.79 329.33 51.79C240.29 51.79 167.85 124.24 167.85 213.28C167.85 256.65 197.28 317.79 252.97 390.09C283.27 429.42 313.79 462.14 329.31 478.16C344.88 462.03 375.56 429.04 405.9 389.56C461.46 317.27 490.82 256.31 490.82 213.28ZM329.33 119.24C380.07 119.24 421.35 160.52 421.35 211.25C421.35 261.99 380.07 303.27 329.33 303.27C278.6 303.27 237.32 261.99 237.32 211.25C237.32 160.52 278.6 119.24 329.33 119.24Z" id="dTU3fue0N"></path></defs><g><g><g><use xlink:href="#aWcmpMJeI" opacity="1" fill="#ffffff" fill-opacity="1"></use><g><use xlink:href="#aWcmpMJeI" opacity="1" fill-opacity="0" stroke="#000000" stroke-width="1" stroke-opacity="0"></use></g></g><g><use xlink:href="#a7IZJZxlVf" opacity="1" fill="#ffffff" fill-opacity="1"></use><g><use xlink:href="#a7IZJZxlVf" opacity="1" fill-opacity="0" stroke="#000000" stroke-width="25" stroke-opacity="1"></use></g></g><g><use xlink:href="#dTU3fue0N" opacity="1" fill="#ffffff" fill-opacity="1"></use><g><use xlink:href="#dTU3fue0N" opacity="1" fill-opacity="0" stroke="#000000" stroke-width="25" stroke-opacity="1"></use></g></g></g></g></svg>